# xmcd CD database file
#
# Track frame offsets:
#	150
#	1581
#	33138
#	48050
#	66698
#	67912
#	94965
#	118975
#	132198
#	133265
#	160196
#	183507
#	184307
#	214939
#	236851
#	238208
#	259674
#	274544
#	275823
#	294564
#	295311
#
# Disc length: 4204 seconds
#
# Revision: 0
# Processed by: cddbd v1.5.1PL0 Copyright (c) Steve Scherf et al.
# Submitted via: CDex 1.51
#
DISCID=4c106a15
DTITLE=Kei Kobayashi - Routine Jazz Schema
DYEAR=2004
DGENRE=Jazz
TTITLE0=Interlude 1
TTITLE1=Saeta '03
TTITLE2=Corsa Notturna
TTITLE3=So Tired
TTITLE4=Interlude 2
TTITLE5=Mira
TTITLE6=Caribe
TTITLE7=Waltz For Debby
TTITLE8=Interlude 3
TTITLE9=Marching To A Different Drum
TTITLE10=Missione A Bombay
TTITLE11=Interlude 4
TTITLE12=African Seeds
TTITLE13=Argento D'Africa
TTITLE14=Interlude 5
TTITLE15=Interlude 5
TTITLE16=Dreamflight
TTITLE17=Interlude 6
TTITLE18=Fuoco Fatuo
TTITLE19=Interlude 7
TTITLE20=Agitazione
EXTD=YEAR: 2004
EXTT0=
EXTT1=
EXTT2=
EXTT3=
EXTT4=
EXTT5=
EXTT6=
EXTT7=
EXTT8=
EXTT9=
EXTT10=
EXTT11=
EXTT12=
EXTT13=
EXTT14=
EXTT15=
EXTT16=
EXTT17=
EXTT18=
EXTT19=
EXTT20=
PLAYORDER=
